<svg xmlns="http://www.w3.org/2000/svg" xmlns:xlink="http://www.w3.org/1999/xlink" width="40" zoomAndPan="magnify" viewBox="0 0 30 30.000001" height="40" preserveAspectRatio="xMidYMid meet" version="1.0"><defs><clipPath id="bf36fd3b32"><path d="M 9 0.777344 L 21.980469 0.777344 L 21.980469 14.667969 L 9 14.667969 Z M 9 0.777344 " clip-rule="nonzero"/></clipPath><clipPath id="5d51ea3264"><path d="M 7.601562 14.363281 L 20.625 14.363281 L 20.625 26.449219 L 7.601562 26.449219 Z M 7.601562 14.363281 " clip-rule="nonzero"/></clipPath><clipPath id="29b3037b81"><path d="M 7.601562 1.789062 L 21.496094 1.789062 L 21.496094 27.839844 L 7.601562 27.839844 Z M 7.601562 1.789062 " clip-rule="nonzero"/></clipPath></defs><g clip-path="url(#bf36fd3b32)"><path fill="#000000" d="M 20.285156 0.9375 L 13.945312 0.9375 C 13.566406 0.9375 13.230469 1.175781 13.097656 1.53125 L 9.179688 12.21875 C 8.960938 12.804688 9.398438 13.429688 10.027344 13.429688 L 14.535156 13.429688 C 14.679688 13.429688 14.816406 13.503906 14.902344 13.621094 C 14.984375 13.738281 15.003906 13.890625 14.953125 14.027344 L 10.507812 25.25 C 10.304688 25.765625 11 26.148438 11.328125 25.703125 C 14.335938 21.632812 19.6875 14.367188 21.953125 11.296875 C 22.394531 10.699219 21.964844 9.859375 21.222656 9.859375 L 17.65625 9.859375 C 17.5 9.859375 17.355469 9.777344 17.273438 9.640625 C 17.195312 9.503906 17.191406 9.339844 17.269531 9.199219 L 21.074219 2.273438 C 21.40625 1.671875 20.972656 0.9375 20.285156 0.9375 " fill-opacity="1" fill-rule="nonzero"/></g><g clip-path="url(#5d51ea3264)"><path fill="#000000" d="M 18.929688 1.429688 L 12.589844 1.429688 C 12.210938 1.429688 11.875 1.664062 11.742188 2.023438 L 7.824219 12.710938 C 7.609375 13.296875 8.042969 13.921875 8.671875 13.921875 L 13.179688 13.921875 C 13.328125 13.921875 13.460938 13.992188 13.546875 14.113281 C 13.628906 14.230469 13.648438 14.382812 13.601562 14.519531 L 9.152344 25.742188 C 8.949219 26.257812 9.644531 26.640625 9.972656 26.195312 C 12.980469 22.125 18.335938 14.859375 20.601562 11.789062 C 21.039062 11.191406 20.609375 10.351562 19.871094 10.351562 L 16.304688 10.351562 C 16.148438 10.351562 16 10.269531 15.921875 10.132812 C 15.839844 9.996094 15.835938 9.832031 15.914062 9.691406 L 19.722656 2.765625 C 20.054688 2.164062 19.617188 1.429688 18.929688 1.429688 " fill-opacity="1" fill-rule="nonzero"/></g><g clip-path="url(#29b3037b81)"><path fill="#a855f7" d="M 19.34375 1.953125 L 12.773438 1.953125 C 12.378906 1.953125 12.03125 2.199219 11.894531 2.566406 L 7.832031 13.644531 C 7.609375 14.253906 8.058594 14.902344 8.710938 14.902344 L 13.382812 14.902344 C 13.535156 14.902344 13.675781 14.976562 13.761719 15.097656 C 13.847656 15.21875 13.867188 15.378906 13.816406 15.519531 L 9.210938 27.148438 C 9 27.683594 9.71875 28.082031 10.058594 27.621094 C 13.175781 23.398438 18.722656 15.871094 21.074219 12.6875 C 21.527344 12.070312 21.082031 11.203125 20.316406 11.203125 L 16.621094 11.203125 C 16.457031 11.203125 16.304688 11.113281 16.222656 10.972656 C 16.140625 10.832031 16.136719 10.660156 16.214844 10.515625 L 20.164062 3.339844 C 20.503906 2.714844 20.054688 1.953125 19.34375 1.953125 " fill-opacity="1" fill-rule="nonzero"/></g><path stroke-linecap="round" transform="matrix(0.308503, -0.811588, 0.811588, 0.308503, 10.514143, 8.656693)" fill="none" stroke-linejoin="miter" d="M 0.498829 0.500482 L 6.692931 0.499567 " stroke="#000000" stroke-width="1" stroke-opacity="1" stroke-miterlimit="4"/></svg>