<svg xmlns="http://www.w3.org/2000/svg" xmlns:xlink="http://www.w3.org/1999/xlink" width="40" zoomAndPan="magnify" viewBox="0 0 30 30.000001" height="40" preserveAspectRatio="xMidYMid meet" version="1.0"><defs><clipPath id="3f3f12d94c"><path d="M 6.925781 1.0625 L 22.894531 1.0625 L 22.894531 27.917969 L 6.925781 27.917969 Z M 6.925781 1.0625 " clip-rule="nonzero"/></clipPath></defs><path stroke-linecap="round" transform="matrix(0.257892, -0.678444, 0.678444, 0.257892, 10.550357, 9.458759)" fill="none" stroke-linejoin="miter" d="M 0.498539 0.502039 L 8.633892 0.501471 " stroke="#a855f7" stroke-width="1" stroke-opacity="1" stroke-miterlimit="4"/><g clip-path="url(#3f3f12d94c)"><path fill="#5d9ada" d="M 16.390625 10.285156 C 16.3125 10.421875 16.316406 10.589844 16.394531 10.722656 C 16.476562 10.859375 16.621094 10.945312 16.777344 10.945312 L 22.128906 10.945312 L 9.8125 26.992188 C 9.796875 26.992188 9.773438 26.980469 9.777344 26.953125 L 14.078125 15.105469 C 14.128906 14.972656 14.109375 14.816406 14.023438 14.699219 C 13.941406 14.582031 13.804688 14.507812 13.660156 14.507812 L 7.863281 14.507812 L 12.441406 2.027344 L 20.929688 2.027344 Z M 21.695312 1.574219 C 21.535156 1.300781 21.246094 1.136719 20.929688 1.136719 L 12.441406 1.136719 C 12.066406 1.136719 11.730469 1.371094 11.605469 1.71875 L 7.027344 14.203125 C 6.925781 14.476562 6.964844 14.78125 7.132812 15.019531 C 7.300781 15.257812 7.574219 15.402344 7.863281 15.402344 L 13.023438 15.402344 L 8.9375 26.648438 C 8.78125 27.082031 8.953125 27.542969 9.359375 27.765625 C 9.503906 27.847656 9.660156 27.882812 9.808594 27.882812 C 10.082031 27.882812 10.347656 27.757812 10.53125 27.519531 L 22.835938 11.484375 C 23.042969 11.214844 23.078125 10.855469 22.925781 10.546875 C 22.777344 10.242188 22.46875 10.050781 22.128906 10.050781 L 17.535156 10.050781 L 21.710938 2.457031 C 21.863281 2.179688 21.859375 1.847656 21.695312 1.574219 " fill-opacity="1" fill-rule="nonzero"/></g></svg>