<svg xmlns="http://www.w3.org/2000/svg" xmlns:xlink="http://www.w3.org/1999/xlink" width="1200" zoomAndPan="magnify" viewBox="0 0 900 472.499986" height="630" preserveAspectRatio="xMidYMid meet" version="1.0"><defs><clipPath id="b5d1d89371"><path d="M 188.050781 52 L 725.980469 52 L 725.980469 430.425781 L 188.050781 430.425781 Z M 188.050781 52 " clip-rule="nonzero"/></clipPath></defs><g clip-path="url(#b5d1d89371)"><path fill="#000000" d="M 725.941406 114.210938 C 725.875 131.378906 724.515625 148.445312 721.863281 165.40625 L 719.601562 178.070312 L 716.773438 190.609375 C 716.332031 192.71875 715.734375 194.765625 715.15625 196.824219 L 713.398438 203.027344 C 712.800781 205.074219 712.296875 207.167969 711.609375 209.136719 L 709.546875 215.246094 L 707.5 221.355469 C 706.859375 223.402344 705.972656 225.359375 705.222656 227.375 L 702.871094 233.359375 C 702.089844 235.363281 701.34375 237.363281 700.410156 239.300781 L 695.136719 251.03125 L 689.269531 262.535156 C 681.152344 277.691406 671.902344 292.125 661.523438 305.835938 C 651.128906 319.535156 639.660156 332.261719 627.113281 344.019531 C 614.597656 355.832031 601.238281 366.597656 587.03125 376.308594 C 572.742188 385.914062 557.777344 394.324219 542.140625 401.542969 C 534.378906 405.238281 526.355469 408.339844 518.335938 411.425781 L 506.109375 415.578125 C 502.015625 416.921875 497.859375 417.992188 493.734375 419.214844 C 477.160156 423.730469 460.335938 426.9375 443.265625 428.835938 L 430.398438 429.84375 L 427.191406 430.089844 L 423.964844 430.195312 L 417.519531 430.363281 L 411.070312 430.546875 C 408.914062 430.546875 406.761719 430.457031 404.605469 430.410156 C 402.453125 430.363281 400.296875 430.410156 398.144531 430.195312 L 391.710938 429.722656 C 387.402344 429.507812 383.136719 428.789062 378.859375 428.300781 C 376.722656 428.089844 374.597656 427.628906 372.472656 427.277344 L 366.117188 426.148438 L 359.804688 424.710938 C 357.710938 424.207031 355.589844 423.828125 353.527344 423.183594 C 349.398438 421.980469 345.199219 420.96875 341.132812 419.503906 C 324.671875 414.113281 309.054688 406.894531 294.285156 397.847656 C 279.558594 388.734375 266.03125 378.097656 253.703125 365.9375 C 241.480469 353.671875 230.785156 340.195312 221.613281 325.507812 C 212.410156 310.789062 205.046875 295.199219 199.535156 278.738281 C 198.007812 274.691406 197 270.492188 195.792969 266.351562 C 195.148438 264.289062 194.707031 262.167969 194.265625 260.074219 L 192.734375 253.765625 C 191.972656 249.519531 191.117188 245.289062 190.503906 241.011719 L 189.617188 234.597656 L 189.222656 231.375 L 188.960938 228.152344 L 188.519531 221.628906 C 188.304688 219.492188 188.367188 217.324219 188.273438 215.167969 L 188.089844 208.753906 L 188.242188 202.261719 C 188.601562 193.582031 189.644531 184.980469 191.375 176.464844 C 192.261719 172.214844 193.324219 168.011719 194.558594 163.851562 C 195.796875 159.6875 197.207031 155.585938 198.785156 151.542969 C 200.363281 147.5 202.109375 143.527344 204.019531 139.628906 C 205.929688 135.730469 208 131.917969 210.226562 128.195312 C 212.457031 124.46875 214.835938 120.839844 217.367188 117.3125 C 219.898438 113.785156 222.574219 110.371094 225.390625 107.066406 C 228.207031 103.761719 231.15625 100.582031 234.234375 97.523438 C 237.316406 94.464844 240.519531 91.539062 243.847656 88.746094 C 250.519531 83.15625 257.597656 78.140625 265.085938 73.703125 C 266.964844 72.632812 268.8125 71.488281 270.753906 70.496094 L 276.546875 67.441406 L 282.472656 64.738281 C 284.460938 63.851562 286.507812 63.117188 288.585938 62.292969 C 296.710938 59.242188 305.03125 56.859375 313.539062 55.144531 C 322.0625 53.445312 330.671875 52.464844 339.363281 52.195312 C 348.132812 51.796875 356.828125 52.433594 365.449219 54.109375 C 374.066406 55.785156 382.367188 58.453125 390.351562 62.109375 C 398.351562 65.785156 405.792969 70.367188 412.675781 75.855469 C 419.59375 81.269531 425.757812 87.441406 431.164062 94.367188 C 433.867188 97.789062 436.371094 101.351562 438.664062 105.058594 C 440.921875 108.808594 442.960938 112.671875 444.777344 116.652344 C 448.441406 124.640625 451.097656 132.949219 452.738281 141.578125 C 453.121094 143.734375 453.515625 145.886719 453.746094 148.070312 L 454.144531 151.324219 L 454.375 154.59375 C 454.710938 158.972656 454.710938 163.351562 454.375 167.730469 C 454.152344 171.027344 453.71875 174.296875 453.074219 177.539062 C 452.433594 180.777344 451.585938 183.964844 450.535156 187.101562 C 449.484375 190.234375 448.238281 193.285156 446.792969 196.257812 C 445.351562 199.234375 443.726562 202.101562 441.914062 204.867188 C 440.101562 207.632812 438.121094 210.269531 435.972656 212.78125 C 433.824219 215.289062 431.523438 217.652344 429.070312 219.871094 C 426.617188 222.085938 424.03125 224.136719 421.316406 226.019531 C 418.601562 227.90625 415.777344 229.609375 412.84375 231.132812 C 404.980469 235.265625 396.648438 237.917969 387.84375 239.089844 L 384.589844 239.5625 L 381.304688 239.714844 C 379.113281 239.902344 376.917969 239.9375 374.71875 239.820312 L 371.386719 239.652344 C 370.289062 239.53125 369.203125 239.316406 368.101562 239.164062 C 365.910156 238.839844 363.75 238.359375 361.625 237.730469 C 360.546875 237.457031 359.492188 237.109375 358.460938 236.691406 L 355.40625 235.53125 L 352.347656 234.003906 C 351.335938 233.570312 350.363281 233.058594 349.429688 232.476562 L 346.710938 230.796875 C 345.765625 230.214844 344.921875 229.496094 344.023438 228.855469 C 342.242188 227.535156 340.5625 226.097656 338.980469 224.546875 C 338.160156 223.804688 337.398438 223.011719 336.6875 222.164062 C 335.953125 221.339844 335.160156 220.53125 334.488281 219.675781 L 332.515625 217.046875 L 331.523438 215.71875 L 330.667969 214.300781 L 328.972656 211.398438 C 328.4375 210.433594 328.007812 209.410156 327.441406 208.34375 C 326.484375 206.363281 325.667969 204.328125 325 202.234375 C 324.625 201.195312 324.316406 200.136719 324.082031 199.054688 C 323.820312 197.988281 323.53125 196.917969 323.300781 195.847656 L 322.890625 192.609375 C 322.695312 191.527344 322.582031 190.441406 322.554688 189.339844 C 322.148438 184.886719 322.464844 180.480469 323.5 176.128906 C 324.027344 173.96875 324.734375 171.871094 325.628906 169.832031 C 326.523438 167.796875 327.585938 165.851562 328.820312 164 C 330.054688 162.148438 331.4375 160.421875 332.976562 158.8125 C 334.511719 157.203125 336.179688 155.742188 337.972656 154.425781 C 341.566406 151.761719 345.503906 149.773438 349.78125 148.46875 C 354.074219 147.195312 358.453125 146.6875 362.921875 146.941406 C 365.160156 147.117188 367.339844 147.5625 369.46875 148.28125 C 371.59375 148.996094 373.601562 149.964844 375.484375 151.179688 C 377.371094 152.394531 379.078125 153.824219 380.609375 155.464844 C 382.140625 157.101562 383.445312 158.90625 384.527344 160.871094 C 386.695312 164.855469 387.796875 169.117188 387.828125 173.65625 C 387.84375 174.777344 387.761719 175.894531 387.578125 177.003906 C 387.398438 178.113281 387.117188 179.195312 386.742188 180.253906 C 386.367188 181.3125 385.902344 182.332031 385.34375 183.308594 C 384.789062 184.285156 384.148438 185.203125 383.429688 186.066406 C 382.707031 186.929688 381.917969 187.71875 381.054688 188.441406 C 380.195312 189.164062 379.277344 189.804688 378.300781 190.363281 C 377.324219 190.921875 376.308594 191.390625 375.25 191.765625 C 374.191406 192.144531 373.109375 192.425781 372 192.609375 C 369.757812 193.039062 367.53125 192.972656 365.320312 192.410156 C 363.101562 191.816406 361.164062 190.714844 359.515625 189.113281 C 358.695312 188.335938 357.992188 187.464844 357.402344 186.5 C 356.808594 185.539062 356.355469 184.515625 356.035156 183.429688 C 355.714844 182.347656 355.539062 181.242188 355.511719 180.113281 C 355.480469 178.984375 355.597656 177.871094 355.863281 176.769531 C 356.027344 176.230469 356.242188 175.707031 356.5 175.203125 C 356.761719 174.699219 357.0625 174.226562 357.410156 173.777344 C 357.757812 173.328125 358.140625 172.917969 358.5625 172.539062 C 358.984375 172.160156 359.4375 171.824219 359.921875 171.53125 C 360.402344 171.234375 360.910156 170.984375 361.4375 170.78125 C 361.96875 170.578125 362.511719 170.425781 363.066406 170.320312 C 363.625 170.21875 364.183594 170.164062 364.75 170.164062 C 365.316406 170.160156 365.878906 170.210938 366.4375 170.308594 C 366.996094 170.449219 367.523438 170.652344 368.027344 170.925781 C 368.53125 171.199219 368.992188 171.53125 369.414062 171.925781 C 369.832031 172.316406 370.195312 172.753906 370.5 173.238281 C 370.804688 173.722656 371.046875 174.238281 371.21875 174.785156 C 371.582031 175.910156 371.605469 177.039062 371.296875 178.175781 C 370.933594 179.328125 370.230469 180.207031 369.1875 180.820312 C 368.140625 181.449219 367.027344 181.621094 365.839844 181.324219 C 365.269531 181.148438 364.777344 180.84375 364.367188 180.410156 C 363.957031 179.972656 363.683594 179.460938 363.550781 178.878906 C 363.386719 178.285156 363.425781 177.703125 363.671875 177.136719 C 363.929688 176.5625 364.34375 176.148438 364.925781 175.902344 C 365.515625 175.628906 366.105469 175.628906 366.695312 175.902344 C 366.972656 176.058594 367.191406 176.273438 367.351562 176.542969 C 367.511719 176.816406 367.59375 177.113281 367.597656 177.429688 L 367.140625 177.429688 C 367.132812 176.929688 366.910156 176.5625 366.46875 176.328125 C 366.019531 176.109375 365.570312 176.109375 365.125 176.328125 C 364.90625 176.429688 364.714844 176.5625 364.550781 176.734375 C 364.382812 176.902344 364.253906 177.097656 364.15625 177.316406 C 364.0625 177.535156 364.007812 177.761719 363.996094 178 C 363.980469 178.238281 364.011719 178.46875 364.085938 178.695312 C 364.207031 179.175781 364.4375 179.59375 364.78125 179.953125 C 365.125 180.308594 365.535156 180.558594 366.007812 180.695312 C 367.023438 180.917969 367.972656 180.757812 368.851562 180.207031 C 369.726562 179.664062 370.320312 178.902344 370.625 177.917969 C 370.867188 176.921875 370.820312 175.9375 370.488281 174.96875 C 370.160156 174 369.621094 173.171875 368.863281 172.484375 C 368.109375 171.796875 367.234375 171.335938 366.238281 171.105469 C 365.234375 170.925781 364.230469 170.941406 363.230469 171.148438 C 362.230469 171.351562 361.300781 171.734375 360.449219 172.296875 C 359.589844 172.84375 358.855469 173.527344 358.246094 174.339844 C 357.632812 175.15625 357.1875 176.054688 356.902344 177.03125 C 356.398438 179.054688 356.480469 181.054688 357.148438 183.035156 C 357.792969 185.007812 358.871094 186.710938 360.386719 188.136719 C 361.894531 189.5625 363.660156 190.527344 365.671875 191.035156 C 367.710938 191.5 369.75 191.5 371.785156 191.035156 C 372.792969 190.855469 373.777344 190.585938 374.738281 190.230469 C 375.699219 189.875 376.621094 189.4375 377.5 188.917969 C 378.382812 188.394531 379.214844 187.800781 379.988281 187.132812 C 380.765625 186.464844 381.476562 185.734375 382.125 184.941406 C 382.769531 184.144531 383.339844 183.300781 383.835938 182.40625 C 384.332031 181.507812 384.742188 180.574219 385.070312 179.605469 C 385.402344 178.636719 385.640625 177.644531 385.792969 176.632812 C 385.949219 175.621094 386.007812 174.601562 385.980469 173.578125 C 385.9375 171.515625 385.644531 169.484375 385.101562 167.492188 C 384.554688 165.5 383.773438 163.605469 382.757812 161.808594 C 381.742188 160.011719 380.523438 158.363281 379.097656 156.867188 C 377.671875 155.375 376.085938 154.074219 374.335938 152.972656 C 370.8125 150.738281 366.96875 149.488281 362.800781 149.230469 C 361.769531 149.183594 360.738281 149.183594 359.707031 149.222656 C 358.675781 149.265625 357.648438 149.351562 356.625 149.484375 C 355.601562 149.613281 354.585938 149.789062 353.578125 150.007812 C 352.570312 150.226562 351.574219 150.488281 350.589844 150.796875 C 349.601562 151.101562 348.632812 151.449219 347.675781 151.835938 C 346.722656 152.226562 345.785156 152.65625 344.867188 153.128906 C 343.949219 153.597656 343.050781 154.105469 342.175781 154.65625 C 341.304688 155.203125 340.453125 155.789062 339.632812 156.410156 C 338.808594 157.03125 338.011719 157.6875 337.246094 158.378906 C 336.480469 159.070312 335.746094 159.792969 335.042969 160.546875 C 334.335938 161.300781 333.667969 162.082031 333.03125 162.894531 C 332.394531 163.707031 331.796875 164.546875 331.230469 165.410156 C 330.667969 166.273438 330.144531 167.160156 329.65625 168.070312 C 329.171875 168.980469 328.726562 169.910156 328.320312 170.855469 C 327.914062 171.804688 327.550781 172.769531 327.226562 173.75 C 326.90625 174.730469 326.625 175.722656 326.390625 176.726562 C 325.484375 180.757812 325.234375 184.832031 325.640625 188.945312 C 325.6875 189.972656 325.808594 190.988281 326.007812 192 L 326.496094 195.054688 C 326.710938 196.078125 327.015625 197.070312 327.261719 198.109375 C 327.488281 199.144531 327.785156 200.164062 328.144531 201.164062 C 328.8125 203.132812 329.601562 205.054688 330.515625 206.921875 C 330.988281 207.839844 331.402344 208.800781 331.90625 209.703125 L 333.492188 212.464844 L 334.304688 213.796875 L 335.25 215.03125 L 337.117188 217.523438 C 337.789062 218.316406 338.503906 219.050781 339.207031 219.8125 C 339.882812 220.605469 340.605469 221.347656 341.378906 222.042969 C 342.875 223.472656 344.460938 224.792969 346.128906 226.015625 C 346.984375 226.625 347.765625 227.296875 348.652344 227.832031 L 351.308594 229.359375 C 352.191406 229.933594 353.109375 230.441406 354.0625 230.886719 L 356.855469 232.214844 L 359.777344 233.285156 C 360.734375 233.671875 361.71875 233.988281 362.722656 234.230469 C 364.730469 234.8125 366.769531 235.246094 368.835938 235.53125 C 369.859375 235.683594 370.867188 235.867188 371.890625 235.972656 L 374.949219 236.109375 C 377.035156 236.203125 379.117188 236.15625 381.199219 235.972656 L 384.253906 235.804688 L 387.308594 235.332031 C 395.65625 234.183594 403.550781 231.640625 410.992188 227.695312 C 413.761719 226.238281 416.429688 224.613281 418.988281 222.816406 C 421.550781 221.019531 423.984375 219.066406 426.292969 216.957031 C 428.605469 214.847656 430.769531 212.601562 432.789062 210.214844 C 434.8125 207.828125 436.671875 205.320312 438.371094 202.695312 C 440.070312 200.070312 441.59375 197.34375 442.945312 194.523438 C 444.292969 191.703125 445.457031 188.808594 446.433594 185.835938 C 447.410156 182.867188 448.195312 179.84375 448.785156 176.773438 C 449.375 173.703125 449.765625 170.605469 449.957031 167.484375 L 450.09375 164.429688 C 450.152344 163.410156 450.152344 162.394531 450.09375 161.375 C 450.09375 159.265625 450.09375 157.175781 449.804688 155.082031 L 449.558594 152.027344 L 449.164062 148.972656 C 448.933594 146.878906 448.535156 144.832031 448.152344 142.769531 C 446.582031 134.496094 444.035156 126.535156 440.515625 118.882812 C 438.78125 115.058594 436.824219 111.355469 434.648438 107.761719 C 432.453125 104.1875 430.058594 100.753906 427.464844 97.453125 C 422.289062 90.804688 416.378906 84.882812 409.742188 79.691406 C 403.144531 74.453125 396.011719 70.085938 388.347656 66.585938 C 380.695312 63.078125 372.734375 60.523438 364.46875 58.917969 C 356.203125 57.3125 347.863281 56.699219 339.453125 57.085938 C 331.042969 57.226562 322.699219 58.054688 314.425781 59.574219 C 306.144531 61.265625 298.050781 63.605469 290.144531 66.601562 C 288.1875 67.394531 286.1875 68.128906 284.261719 68.96875 L 278.488281 71.550781 L 272.847656 74.421875 C 270.96875 75.382812 269.164062 76.496094 267.332031 77.476562 C 260.035156 81.761719 253.136719 86.609375 246.628906 92.015625 C 243.375 94.722656 240.238281 97.5625 237.222656 100.53125 C 234.207031 103.5 231.320312 106.589844 228.5625 109.800781 C 225.804688 113.011719 223.183594 116.332031 220.703125 119.757812 C 218.222656 123.1875 215.890625 126.714844 213.707031 130.339844 C 211.519531 133.964844 209.492188 137.671875 207.617188 141.464844 C 205.742188 145.261719 204.027344 149.125 202.476562 153.0625 C 200.921875 157 199.539062 160.996094 198.320312 165.046875 C 197.101562 169.101562 196.054688 173.195312 195.179688 177.335938 C 193.457031 185.613281 192.402344 193.972656 192.015625 202.417969 L 191.835938 208.753906 L 191.988281 215.125 C 192.0625 217.246094 191.988281 219.371094 192.214844 221.476562 L 192.675781 227.832031 L 192.917969 231.007812 L 193.316406 234.171875 L 194.09375 240.492188 C 194.691406 244.695312 195.53125 248.863281 196.25 253.050781 L 197.671875 259.25 C 198.160156 261.328125 198.574219 263.40625 199.199219 265.4375 C 200.390625 269.515625 201.414062 273.636719 202.851562 277.65625 C 208.164062 293.867188 215.292969 309.238281 224.242188 323.765625 C 233.269531 338.265625 243.808594 351.570312 255.855469 363.679688 C 267.972656 375.714844 281.285156 386.25 295.785156 395.28125 C 310.328125 404.265625 325.714844 411.441406 341.945312 416.816406 C 345.933594 418.34375 350.089844 419.273438 354.167969 420.480469 C 356.199219 421.125 358.292969 421.503906 360.28125 422.007812 L 366.5 423.460938 L 372.792969 424.589844 C 374.886719 424.941406 376.964844 425.398438 379.089844 425.613281 C 383.304688 426.117188 387.523438 426.835938 391.773438 427.140625 L 398.144531 427.628906 C 400.265625 427.796875 402.390625 427.78125 404.53125 427.859375 C 406.667969 427.933594 408.777344 427.996094 410.917969 428.011719 L 417.304688 427.859375 L 423.707031 427.722656 L 426.898438 427.628906 L 430.09375 427.386719 L 442.851562 426.421875 C 459.859375 424.632812 476.621094 421.527344 493.136719 417.105469 C 497.25 415.914062 501.390625 414.875 505.4375 413.5625 L 517.585938 409.484375 C 525.5625 406.429688 533.539062 403.375 541.269531 399.769531 C 556.84375 392.667969 571.75 384.375 585.992188 374.890625 C 600.167969 365.296875 613.5 354.65625 625.996094 342.964844 C 638.542969 331.300781 650.011719 318.660156 660.40625 305.042969 C 670.8125 291.441406 680.085938 277.109375 688.230469 262.046875 L 694.113281 250.636719 L 699.417969 238.964844 C 700.347656 237.042969 701.113281 235.042969 701.90625 233.054688 L 704.277344 227.097656 C 705.023438 225.097656 705.910156 223.144531 706.566406 221.113281 L 708.644531 215 L 710.707031 208.890625 C 711.410156 206.875 711.914062 204.796875 712.542969 202.78125 L 714.300781 196.671875 C 714.894531 194.625 715.507812 192.5625 715.949219 190.472656 L 718.867188 177.976562 L 721.160156 165.363281 C 723.890625 148.441406 725.324219 131.410156 725.46875 114.269531 Z M 725.941406 114.210938 " fill-opacity="1" fill-rule="nonzero"/></g></svg>